    <svg viewBox="0 0 73 56" xmlns="http://www.w3.org/2000/svg">
      <g transform="translate(-6.9 -8.2)" stroke-width="2" fill="none" stroke="currentColor" stroke-linecap="round" stroke-linejoin="round">

        
 
       <!-- <path class="pins" d="m72  
       16v-4 c0-1 1-2.7 2-2.7 2 0 3 1.7 3 2.7v4m-14 
       0v-4 c0-1 1-2.7 2-2.7 2 0 3 1.7 3 2.7v4m-14 
       0v-4 c0-1 1-2.7 2-2.7 2 0 3 1.7 3 2.7v4m-14
       0v-4 c0-1 1-2.7 2-2.7 2 0 3 1.7 3 2.7v4m-14
       0v-4 c0-1 1-2.7 2-2.7 2 0 3 1.7 3 2.7v4m-14
       0v-4 c0-1 1-2.7 3-2.7 1 0 2 1.7 2 2.7v4m45 
       40v5 c0 1-1 2-3 2-1 0-2-1-2-2v-5m-4
        c0 1-1 2-3 2-1 0-2-1-2-2v-5m-4
       0v5 c0 1-1 2-3 2-1 0-2-1-2-2v-5m-4 
       0v5 c0 1-1 2-3 2-1 0-2-1-2-2v-5m-4
       0v5 c0 1-1 2-3 2-1 0-2-1-2-2v-5m-4
       0v5 c0 1-1 2-2 2-2 0-3-1-3-2v-5"/>  -->

       <!-- <path id="pin" color="blue"  d="m27 16v-4 c0-1 1-2.7 2-2.7 2 0 3 1.7 3 2.7v4"/>  -->

       

       <!-- <ellipse id="myCircle" cx="29.5" cy="13.2" r="2.5" rx="2.5" ry="4" stroke="blue"/>
  
  <use href="#myCircle" x="20" fill="white" stroke="red"/> -->
       <path class="box" fill="inherit" d="m78 16h-52c-1 0-1 1-1 1v38c0 1 0 1 1 1h52c1 0 1 0 1-1v-38s0-1-1-1z"/>
       <g id="top">
       <path id="p" d="m27 16v-4 c0-1 1-2.7 2-2.7 2 0 3 1.7 3 2.7v4m-14"/>
       <use href="#p" x="9"/>
       <use href="#p" x="18"/>
       <use href="#p" x="27"/>
       <use href="#p" x="36"/>
       <use href="#p" x="45"/>
      </g>
      <use color="yellow" href="#top" transform="scale(1 -1) translate(0,-72)"/>
       <!-- <ellipse color="white"
     id="p"
     cx="29.4"
     cy="12.6"
     rx="2.5"
     ry="3.4" />
     <use href="#p" x="36"/> -->
       <path class="home" fill="currentColor" d="m40 38h2.9v7.8h17v-7.8h2.9l-2.9-2.9v-5.1h-1.8v3.3l-6.8-6.8z"/>
       <path class="aerial" d="m24 54h-16v-4h12v-4h-12v-4h12v-4h-12v-4h12v-4h-12v-12"  />
      </g>
     </svg>