<svg xmlns="http://www.w3.org/2000/svg" width="73" height="57" viewbox="0 0 73 57">
<g style="fill: none; stroke: currentColor; stroke-width: 1.4; stroke-linecap: round; stroke-linejoin: round">
<path class="pins" d="m 64.2,8 
          v -4.2 c 0,-1.5 1.2,-2.7 2.7,-2.7 1.5,0 2.7,1.2 2.7,2.7 v 4.2 
m -14.3,0 v -4.2 c 0,-1.5 1.2,-2.7 2.7,-2.7 a 2.65,2.65 0 0 1 2.7,2.65 v 4.2 
m -14.3,0 v -4.2 c 0,-1.5 1.2,-2.7 2.7,-2.7 1.5,0 2.7,1.2 2.7,2.7 v 4.2 
m -14.3,0 v -4.2 c 0,-1.5 1.2,-2.7 2.7,-2.7 1.5,0 2.7,1.2 2.7,2.7 v 4.2 
m -14.3,0 v -4.2 c 0,-1.5 1.2,-2.7 2.7,-2.7 1.5,0 2.7,1.2 2.7,2.7 v 4.2 
m -14.3,0 v -4.2 c 0,-1.5 1.2,-2.7 2.7,-2.7 1.5,0 2.7,1.2 2.7,2.7 v 4.2 
m 45,40   v 4.7 c 0,1.5 -1.2,2.7 -2.7,2.7 -1.5,0 -2.7,-1.2 -2.7,-2.7 v -4.7 
m -3.64,0 v 4.7 c 0,1.5 -1.2,2.7 -2.7,2.7 -1.5,0 -2.7,-1.2 -2.7,-2.7 v -4.7 
m -3.64,0 v 4.7 c 0,1.5 -1.2,2.7 -2.7,2.7 -1.5,0 -2.7,-1.2 -2.7,-2.7 v -4.7 
m -3.64,0 v 4.7 c 0,1.5 -1.2,2.7 -2.7,2.7 -1.5,0 -2.7,-1.2 -2.7,-2.7 v -4.7 
m -3.64,0 v 4.7 c 0,1.5 -1.2,2.7 -2.7,2.7 -1.5,0 -2.7,-1.2 -2.7,-2.7 v -4.7 
m -3.64,0.26 v 4.7 c 0,1.5 -1.2,2.7 -2.7,2.7 -1.5,0 -2.7,-1.2 -2.7,-2.7 v -4.7"/>
<path class="box" d="m 71,8 h -53 a 1,1 0 0 0 -1,1 V 46.9 c 0,0.5 0.43,1 1,1 h 53 c 0.5,0 1,-0.43 1,-1 V 8.9 c 0,-0.54 -0.43,-1 -1,-1 z" />
<path class="home" style="fill:currentColor" d="m 33,30 h 2.87 v 7.75 h 17.25 v -7.75 h 2.87 l -2.89,-2.9 v -5.07 h -1.8 v 3.28 l -6.81,-6.81 z" />
<path class="aerial" d="M 17,45 
H 1 v -4 H 13 v -4 
H 1 v -4 H 13 v -4 
H 1 v -4 H 13 v -4 
H 1 v -12" />
</g></svg>