<svg xmlns="http://www.w3.org/2000/svg" width="73" height="57" viewbox="0 0 73 57">
<g style="fill: none; stroke: currentColor; stroke-width: 1.4; stroke-linecap: round; stroke-linejoin: round">
<path class="pins" d="m 64.189608,7.9290189 v -4.18 c 0,-1.47 1.19,-2.66 2.66,-2.66 1.47,0 2.66,1.19 2.66,2.66 v 4.18 m -14.27,0 v -4.18 c 0,-1.47 1.19,-2.66 2.66,-2.66 a 2.65,2.65 0 0 1 2.66,2.65 v 4.18 m -14.28,0.01 v -4.18 c 0,-1.47 1.19,-2.66 2.66,-2.66 1.47,0 2.66,1.19 2.66,2.66 v 4.18 m -14.28,0 v -4.18 c 0,-1.47 1.19,-2.66 2.66,-2.66 1.47,0 2.66,1.19 2.66,2.66 v 4.18 m -14.28,0 v -4.18 c 0,-1.47 1.19,-2.66 2.66,-2.66 1.47,0 2.66,1.19 2.66,2.66 v 4.18 m -14.27,0 v -4.18 c 0,-1.47 1.19,-2.66 2.66,-2.66 1.47,0 2.66,1.19 2.66,2.66 v 4.18 m 44.78,39.8900001 v 4.68 c 0,1.47 -1.19,2.66 -2.66,2.66 -1.47,0 -2.66,-1.19 -2.66,-2.66 v -4.68 m -3.63,0 v 4.68 c 0,1.47 -1.19,2.66 -2.66,2.66 -1.47,0 -2.66,-1.19 -2.66,-2.66 v -4.68 m -3.64,0 v 4.68 c 0,1.47 -1.19,2.66 -2.66,2.66 -1.47,0 -2.66,-1.19 -2.66,-2.66 v -4.68 m -3.64,0 v 4.68 c 0,1.47 -1.19,2.66 -2.66,2.66 -1.47,0 -2.66,-1.19 -2.66,-2.66 v -4.68 m -3.64,0 v 4.68 c 0,1.47 -1.19,2.66 -2.66,2.66 -1.47,0 -2.66,-1.19 -2.66,-2.66 v -4.68 m -3.63,0.26 v 4.43 c 0,1.47 -1.19,2.66 -2.66,2.66 -1.47,0 -2.66,-1.19 -2.66,-2.66 v -4.43"/>
<path class="box" d="m 70.849608,7.9290189 h -52.78 a 0.97,0.97 0 0 0 -0.97,0.9699998 V 46.859019 c 0,0.53 0.43,0.97 0.97,0.97 h 52.77 c 0.53,0 0.97,-0.43 0.97,-0.97 V 8.8990187 c 0,-0.5399998 -0.43,-0.9699998 -0.96,-0.9699998 z" />
<path class="home" style="fill:currentColor" d="m 33.059608,30.069019 h 2.87 v 7.75 h 17.25 v -7.75 h 2.87 l -2.89,-2.9 v -5.07 h -1.8 v 3.28 l -6.81,-6.81 z" />
<path class="aerial" d="M 16.899608,45.519019 H 1.0796079 v -3.89 H 12.939608 v -3.89 H 1.0796079 v -3.88 H 12.939608 v -3.89 H 1.0796079 v -3.89 H 12.939608 v -3.88 H 1.0796079 v -11.98" />
</g></svg>